<?xml version="1.0" encoding="utf-8"?>
<!-- Generator: Adobe Illustrator 23.1.1, SVG Export Plug-In . SVG Version: 6.00 Build 0)  -->
<svg version="1.1" id="Layer_1" xmlns="http://www.w3.org/2000/svg" xmlns:xlink="http://www.w3.org/1999/xlink" x="0px" y="0px"
	 viewBox="0 0 591 611" style="enable-background:new 0 0 591 611;" xml:space="preserve">
<style type="text/css">
	.st0{fill:#F1F2F2;}
	.st1{fill:#D1D3D4;stroke:#000000;stroke-width:0.25;stroke-miterlimit:10;}
	.st2{fill:#FFFFFF;stroke:#000000;stroke-width:0.25;stroke-miterlimit:10;}
	.st3{fill:none;stroke:#808285;stroke-width:0.5;stroke-miterlimit:10;}
	.st4{fill:#808285;}
	.st5{font-family:'Georgia-Italic';}
	.st6{font-size:10px;}
	.st7{fill:#F1F2F2;stroke:#808285;stroke-width:0.5;stroke-miterlimit:10;}
	.st8{font-family:'Georgia';}
	.st9{fill:none;stroke:#808285;stroke-miterlimit:10;}
	.st10{fill:none;stroke:#808285;stroke-miterlimit:10;stroke-dasharray:2.0489,2.0489;}
	.st11{fill:none;stroke:#6D6E71;stroke-width:0.75;stroke-miterlimit:10;}
	.st12{fill:none;stroke:#6D6E71;stroke-width:0.75;stroke-miterlimit:10;stroke-dasharray:2.0744,2.0744;}
	.st13{fill:#6D6E71;}
	.st14{fill:#FFFFFF;stroke:#808285;stroke-width:0.5;stroke-miterlimit:10;}
	.st15{fill:none;stroke:#808285;stroke-width:0.75;stroke-miterlimit:10;}
	.st16{fill:none;stroke:#808285;stroke-width:0.75;stroke-miterlimit:10;stroke-dasharray:2.0134,2.0134;}
	.st17{fill:none;stroke:#808285;stroke-width:0.75;stroke-miterlimit:10;stroke-dasharray:1.9476,1.9476;}
	.st18{fill:none;stroke:#808285;stroke-width:0.75;stroke-miterlimit:10;stroke-dasharray:2.0106,2.0106;}
	.st19{fill:none;stroke:#808285;stroke-width:0.75;stroke-miterlimit:10;stroke-dasharray:1.9849,1.9849;}
	.st20{fill:none;stroke:#808285;stroke-width:0.75;stroke-miterlimit:10;stroke-dasharray:2.0009,2.0009;}
	.st21{fill:none;stroke:#58595B;stroke-width:0.5;stroke-miterlimit:10;}
	.st22{fill:none;stroke:#58595B;stroke-width:0.5;stroke-miterlimit:10;stroke-dasharray:2.0307,2.0307;}
	.st23{fill:#58595B;}
	.st24{fill:none;stroke:#58595B;stroke-width:0.5;stroke-miterlimit:10;stroke-dasharray:2.0131,2.0131;}
</style>
<circle class="st0" cx="316.9" cy="465.8" r="103.3"/>
<circle class="st0" cx="412.2" cy="119.9" r="103.3"/>
<rect x="32.9" y="270.8" class="st1" width="405.1" height="31.8"/>
<g>
	<g>
		<rect x="39.5" y="275.5" class="st2" width="22.4" height="6.6"/>
		<rect x="39.5" y="282.1" class="st2" width="22.4" height="6.6"/>
		<rect x="39.5" y="288.8" class="st2" width="22.4" height="6.6"/>
	</g>
	<g>
		<g>
			<line class="st3" x1="93.7" y1="285.5" x2="72.7" y2="285.5"/>
			<g>
				<polygon class="st4" points="73.5,283 69.2,285.5 73.5,288 				"/>
			</g>
		</g>
	</g>
</g>
<g>
	<g>
		<rect x="96.8" y="275.5" class="st2" width="22.4" height="6.6"/>
		<rect x="96.8" y="282.1" class="st2" width="22.4" height="6.6"/>
		<rect x="96.8" y="288.8" class="st2" width="22.4" height="6.6"/>
	</g>
	<g>
		<g>
			<line class="st3" x1="150.9" y1="285.5" x2="130" y2="285.5"/>
			<g>
				<polygon class="st4" points="130.7,283 126.4,285.5 130.7,288 				"/>
			</g>
		</g>
	</g>
</g>
<g>
	<g>
		<rect x="154.6" y="275.5" class="st2" width="22.4" height="6.6"/>
		<rect x="154.6" y="282.1" class="st2" width="22.4" height="6.6"/>
		<rect x="154.6" y="288.8" class="st2" width="22.4" height="6.6"/>
	</g>
	<g>
		<g>
			<line class="st3" x1="208.7" y1="285.5" x2="187.8" y2="285.5"/>
			<g>
				<polygon class="st4" points="188.5,283 184.2,285.5 188.5,288 				"/>
			</g>
		</g>
	</g>
</g>
<g>
	<g>
		<rect x="213.1" y="275.5" class="st2" width="22.4" height="6.6"/>
		<rect x="213.1" y="282.1" class="st2" width="22.4" height="6.6"/>
		<rect x="213.1" y="288.8" class="st2" width="22.4" height="6.6"/>
	</g>
	<g>
		<g>
			<line class="st3" x1="267.2" y1="285.5" x2="246.3" y2="285.5"/>
			<g>
				<polygon class="st4" points="247,283 242.7,285.5 247,288 				"/>
			</g>
		</g>
	</g>
</g>
<g>
	<g>
		<rect x="271.3" y="275.5" class="st2" width="22.4" height="6.6"/>
		<rect x="271.3" y="282.1" class="st2" width="22.4" height="6.6"/>
		<rect x="271.3" y="288.8" class="st2" width="22.4" height="6.6"/>
	</g>
	<g>
		<g>
			<line class="st3" x1="325.4" y1="285.5" x2="304.4" y2="285.5"/>
			<g>
				<polygon class="st4" points="305.2,283 300.9,285.5 305.2,288 				"/>
			</g>
		</g>
	</g>
</g>
<g>
	<rect x="329.6" y="275.5" class="st2" width="22.4" height="6.6"/>
	<rect x="329.6" y="282.1" class="st2" width="22.4" height="6.6"/>
	<rect x="329.6" y="288.8" class="st2" width="22.4" height="6.6"/>
</g>
<g>
	<g>
		<line class="st3" x1="383.7" y1="285.5" x2="362.8" y2="285.5"/>
		<g>
			<polygon class="st4" points="363.5,283 359.2,285.5 363.5,288 			"/>
		</g>
	</g>
</g>
<text transform="matrix(1 0 0 1 32.9417 261.4742)" class="st5 st6">Akash Blockchain</text>
<g>
	<rect x="391" y="275.5" class="st1" width="22.4" height="6.6"/>
	<rect x="391" y="282.1" class="st1" width="22.4" height="6.6"/>
	<rect x="391" y="288.8" class="st1" width="22.4" height="6.6"/>
</g>
<g>
	<circle class="st7" cx="355.4" cy="90.7" r="30.2"/>
	<text transform="matrix(1 0 0 1 336.2292 92.7397)" class="st8 st6">Delegate</text>
</g>
<g>
	<circle class="st7" cx="468.4" cy="92.7" r="30.2"/>
	<text transform="matrix(1 0 0 1 449.2292 94.8076)" class="st8 st6">Delegate</text>
</g>
<g>
	<circle class="st7" cx="412.9" cy="181.3" r="30.2"/>
	<text transform="matrix(1 0 0 1 393.7023 183.3183)" class="st8 st6">Delegate</text>
</g>
<g>
	<g>
		<line class="st9" x1="435.5" y1="145.3" x2="436" y2="144.4"/>
		<line class="st10" x1="437.3" y1="142.8" x2="446.3" y2="130.4"/>
		<line class="st9" x1="446.9" y1="129.5" x2="447.5" y2="128.7"/>
		<g>
			<polygon class="st4" points="440.3,147 431.2,151.1 432.3,141.1 			"/>
		</g>
		<g>
			<polygon class="st4" points="450.7,132.9 451.7,122.9 442.6,127 			"/>
		</g>
	</g>
</g>
<g>
	<g>
		<line class="st9" x1="384.7" y1="145.6" x2="384.2" y2="144.7"/>
		<line class="st10" x1="383.1" y1="143" x2="374.8" y2="130"/>
		<line class="st9" x1="374.3" y1="129.2" x2="373.8" y2="128.3"/>
		<g>
			<polygon class="st4" points="388.1,141.7 388.6,151.6 379.7,147 			"/>
		</g>
		<g>
			<polygon class="st4" points="378.7,126.9 369.9,122.3 370.3,132.2 			"/>
		</g>
	</g>
</g>
<g>
	<g>
		<line class="st9" x1="420.4" y1="91.6" x2="419.4" y2="91.6"/>
		<line class="st10" x1="417.4" y1="91.6" x2="402" y2="91.6"/>
		<line class="st9" x1="401" y1="91.6" x2="400" y2="91.6"/>
		<g>
			<polygon class="st4" points="418.9,86.6 427.6,91.6 418.9,96.6 			"/>
		</g>
		<g>
			<polygon class="st4" points="401.4,86.6 392.8,91.6 401.4,96.6 			"/>
		</g>
	</g>
</g>
<text transform="matrix(1 0 0 1 390.8236 121.9369)" class="st5 st6">consensus</text>
<g>
	<g>
		<line class="st11" x1="412.2" y1="226.2" x2="412.2" y2="227.2"/>
		<line class="st12" x1="412.2" y1="229.3" x2="412.2" y2="257.3"/>
		<line class="st11" x1="412.2" y1="258.3" x2="412.2" y2="259.3"/>
		<g>
			<polygon class="st13" points="408.4,258.2 412.2,264.7 415.9,258.2 			"/>
		</g>
	</g>
</g>
<text transform="matrix(1 0 0 1 420.234 245.0391)" class="st5 st6">new blocks</text>
<g>
	<circle class="st14" cx="106.3" cy="465.8" r="23.6"/>
	<text transform="matrix(1 0 0 1 93.1195 468.4922)" class="st8 st6">Client</text>
</g>
<g>
	<circle class="st14" cx="313.2" cy="395.6" r="23.6"/>
	<text transform="matrix(1 0 0 1 294.8899 399.2686)" class="st8 st6">Provider</text>
</g>
<g>
	<circle class="st14" cx="389.4" cy="464.2" r="23.6"/>
	<text transform="matrix(1 0 0 1 371.102 467.8434)" class="st8 st6">Provider</text>
</g>
<g>
	<circle class="st14" cx="313.2" cy="539" r="23.6"/>
	<text transform="matrix(1 0 0 1 294.8899 542.6516)" class="st8 st6">Provider</text>
</g>
<g>
	<g>
		<line class="st15" x1="275.6" y1="516.9" x2="274.7" y2="516.6"/>
		<line class="st16" x1="272.7" y1="516.1" x2="142" y2="478.7"/>
		<line class="st15" x1="141.1" y1="478.5" x2="140.1" y2="478.2"/>
		<g>
			<polygon class="st4" points="275.6,513 280.8,518.4 273.5,520.2 			"/>
		</g>
		<g>
			<polygon class="st4" points="142.2,474.9 134.9,476.7 140.1,482.1 			"/>
		</g>
	</g>
</g>
<g>
	<g>
		<line class="st15" x1="362.9" y1="436.9" x2="362.2" y2="436.2"/>
		<line class="st17" x1="360.8" y1="434.8" x2="345" y2="419"/>
		<line class="st15" x1="344.3" y1="418.3" x2="343.6" y2="417.6"/>
		<g>
			<polygon class="st4" points="364.8,433.5 366.7,440.7 359.5,438.8 			"/>
		</g>
		<g>
			<polygon class="st4" points="347,415.7 339.8,413.8 341.7,421 			"/>
		</g>
	</g>
</g>
<g>
	<g>
		<line class="st9" x1="360.1" y1="493.5" x2="359.4" y2="494.3"/>
		<line class="st10" x1="357.9" y1="495.7" x2="347.1" y2="506.6"/>
		<line class="st9" x1="346.3" y1="507.3" x2="345.6" y2="508"/>
		<g>
			<polygon class="st4" points="355.5,491 365.1,488.5 362.6,498.1 			"/>
		</g>
		<g>
			<polygon class="st4" points="343.1,503.4 340.5,513.1 350.2,510.5 			"/>
		</g>
	</g>
</g>
<g>
	<g>
		<line class="st15" x1="273.3" y1="406.4" x2="272.4" y2="406.7"/>
		<line class="st18" x1="270.5" y1="407.3" x2="141.6" y2="450"/>
		<line class="st15" x1="140.7" y1="450.3" x2="139.7" y2="450.6"/>
		<g>
			<polygon class="st4" points="271.1,403.2 278.5,404.7 273.5,410.3 			"/>
		</g>
		<g>
			<polygon class="st4" points="139.6,446.7 134.6,452.3 142,453.8 			"/>
		</g>
	</g>
</g>
<g>
	<g>
		<line class="st15" x1="346.8" y1="464.9" x2="345.8" y2="464.9"/>
		<line class="st19" x1="343.8" y1="464.9" x2="142.3" y2="465.7"/>
		<line class="st15" x1="141.3" y1="465.7" x2="140.3" y2="465.8"/>
		<g>
			<polygon class="st4" points="345.7,461.1 352.1,464.8 345.7,468.6 			"/>
		</g>
		<g>
			<polygon class="st4" points="141.4,462 134.9,465.8 141.4,469.5 			"/>
		</g>
	</g>
</g>
<g>
	<g>
		<line class="st15" x1="312.3" y1="429.7" x2="312.3" y2="430.7"/>
		<line class="st20" x1="312.3" y1="432.7" x2="312.3" y2="503.7"/>
		<line class="st15" x1="312.3" y1="504.7" x2="312.3" y2="505.7"/>
		<g>
			<polygon class="st4" points="308.6,430.7 312.3,424.3 316,430.7 			"/>
		</g>
		<g>
			<polygon class="st4" points="308.6,504.6 312.3,511.1 316,504.6 			"/>
		</g>
	</g>
</g>
<g>
	<g>
		<line class="st21" x1="106" y1="317.5" x2="106" y2="318.5"/>
		<line class="st22" x1="106" y1="320.6" x2="106" y2="429.2"/>
		<line class="st21" x1="106" y1="430.2" x2="106" y2="431.2"/>
		<g>
			<polygon class="st23" points="103.5,318.3 106,314 108.5,318.3 			"/>
		</g>
		<g>
			<polygon class="st23" points="103.5,430.5 106,434.8 108.5,430.5 			"/>
		</g>
	</g>
</g>
<g>
	<g>
		<line class="st21" x1="313.1" y1="315.6" x2="313.1" y2="316.6"/>
		<line class="st24" x1="313.1" y1="318.7" x2="313.1" y2="345.8"/>
		<line class="st21" x1="313.1" y1="346.8" x2="313.1" y2="347.8"/>
		<g>
			<polygon class="st23" points="310.6,316.4 313.1,312.1 315.6,316.4 			"/>
		</g>
		<g>
			<polygon class="st23" points="310.6,347.1 313.1,351.4 315.6,347.1 			"/>
		</g>
	</g>
</g>
<text transform="matrix(0.9442 -0.3293 0.3293 0.9442 156.8327 436.4248)" class="st5 st6">peer-to-peer</text>
<text transform="matrix(1 0 0 1 267.2326 584.1289)" class="st5 st6">private overlay network</text>
<g>
	<circle class="st14" cx="537.4" cy="464" r="23.6"/>
	<text transform="matrix(1 0 0 1 527.0815 460.7471)"><tspan x="0" y="0" class="st8 st6">End </tspan><tspan x="-0.1" y="12" class="st8 st6">User</tspan></text>
</g>
<g>
	<g>
		<line class="st15" x1="501.1" y1="464.7" x2="441.9" y2="464.7"/>
		<g>
			<polygon class="st4" points="500,460.9 506.5,464.7 500,468.4 			"/>
		</g>
		<g>
			<polygon class="st4" points="443,460.9 436.6,464.7 443,468.4 			"/>
		</g>
	</g>
</g>
<text transform="matrix(1 0 0 1 450.7109 457.0392)" class="st5 st6">http / tcp</text>
</svg>
